# xmcd CD database file
# 
# Track frame offsets:
# 	150
# 	26185
# 	37299
# 	58451
# 	74930
# 	88612
# 	102716
# 	122965
# 	143788
# 	163825
# 
# Disc length: 2400 seconds
# 
# Submitted via: Nero 5.5.10.42
# 
# Revision: 0
# Processed by: cddbd v1.4PL0 Copyright (c) Steve Scherf et al.
#
DISCID=aa095e0a
DTITLE=Rusty Wier - Stoned, Slow, Rugged
DYEAR=1900
DGENRE=
TTITLE0=Whiskey Still - Whiskey Man
TTITLE1=Easier to Hurt
TTITLE2=5 O'Clock on a Texas Morning
TTITLE3=Painted Lady
TTITLE4=Busted
TTITLE5=Stoned, Slow, Rugged
TTITLE6=Jeremaiah Black
TTITLE7=Country Style
TTITLE8=Song for Coby
TTITLE9=Railroad Man
EXTD=
EXTT0=
EXTT1=
EXTT2=
EXTT3=
EXTT4=
EXTT5=
EXTT6=
EXTT7=
EXTT8=
EXTT9=
PLAYORDER=
